<svg width="77" height="19" viewBox="0 0 77 19" fill="none" xmlns="http://www.w3.org/2000/svg">
<path d="M10.9858 5.56534C10.9176 4.87784 10.625 4.34375 10.108 3.96307C9.59091 3.58239 8.8892 3.39204 8.00284 3.39204C7.40057 3.39204 6.89205 3.47727 6.47727 3.64773C6.0625 3.8125 5.74432 4.04261 5.52273 4.33807C5.30682 4.63352 5.19886 4.96875 5.19886 5.34375C5.1875 5.65625 5.25284 5.92898 5.39489 6.16193C5.54261 6.39489 5.74432 6.59659 6 6.76705C6.25568 6.93182 6.55114 7.0767 6.88636 7.2017C7.22159 7.32102 7.57955 7.4233 7.96023 7.50852L9.52841 7.88352C10.2898 8.05398 10.9886 8.28125 11.625 8.56534C12.2614 8.84943 12.8125 9.19886 13.2784 9.61364C13.7443 10.0284 14.1051 10.517 14.3608 11.0795C14.6222 11.642 14.7557 12.2869 14.7614 13.0142C14.7557 14.0824 14.483 15.0085 13.9432 15.7926C13.4091 16.571 12.6364 17.1761 11.625 17.608C10.6193 18.0341 9.40625 18.2472 7.9858 18.2472C6.5767 18.2472 5.34943 18.0312 4.30398 17.5994C3.2642 17.1676 2.4517 16.5284 1.86648 15.6818C1.28693 14.8295 0.982955 13.7756 0.954545 12.5199H4.52557C4.56534 13.1051 4.73295 13.5937 5.02841 13.9858C5.32955 14.3722 5.73011 14.6648 6.23011 14.8636C6.7358 15.0568 7.30682 15.1534 7.94318 15.1534C8.56818 15.1534 9.1108 15.0625 9.57102 14.8807C10.0369 14.6989 10.3977 14.446 10.6534 14.1222C10.9091 13.7983 11.0369 13.4261 11.0369 13.0057C11.0369 12.6136 10.9205 12.2841 10.6875 12.017C10.4602 11.75 10.125 11.5227 9.68182 11.3352C9.24432 11.1477 8.70739 10.9773 8.07102 10.8239L6.17045 10.3466C4.69886 9.98864 3.53693 9.42898 2.68466 8.66761C1.83239 7.90625 1.40909 6.88068 1.41477 5.59091C1.40909 4.53409 1.69034 3.6108 2.25852 2.82102C2.83239 2.03125 3.61932 1.41477 4.61932 0.971591C5.61932 0.528409 6.75568 0.306818 8.02841 0.306818C9.32386 0.306818 10.4545 0.528409 11.4205 0.971591C12.392 1.41477 13.1477 2.03125 13.6875 2.82102C14.2273 3.6108 14.5057 4.52557 14.5227 5.56534H10.9858ZM20.8061 10.4318V18H17.1754V0.545454H20.7038V7.21875H20.8572C21.1527 6.44602 21.63 5.84091 22.2891 5.40341C22.9482 4.96023 23.7749 4.73864 24.7692 4.73864C25.6783 4.73864 26.4709 4.9375 27.147 5.33523C27.8288 5.72727 28.3572 6.29261 28.7322 7.03125C29.1129 7.7642 29.3004 8.64205 29.2947 9.66477V18H25.6641V10.3125C25.6697 9.50568 25.4652 8.87784 25.0504 8.42898C24.6413 7.98011 24.0675 7.75568 23.3288 7.75568C22.8345 7.75568 22.397 7.8608 22.0163 8.07102C21.6413 8.28125 21.3459 8.58807 21.13 8.99148C20.9197 9.3892 20.8118 9.86932 20.8061 10.4318ZM76.5128 8.64205L73.1889 8.84659C73.1321 8.5625 73.0099 8.30682 72.8224 8.07955C72.6349 7.84659 72.3878 7.66193 72.081 7.52557C71.7798 7.38352 71.419 7.3125 70.9986 7.3125C70.4361 7.3125 69.9616 7.43182 69.5753 7.67045C69.1889 7.90341 68.9957 8.21591 68.9957 8.60795C68.9957 8.92045 69.1207 9.18466 69.3707 9.40057C69.6207 9.61648 70.0497 9.78977 70.6577 9.92045L73.027 10.3977C74.2997 10.6591 75.2486 11.0795 75.8736 11.6591C76.4986 12.2386 76.8111 13 76.8111 13.9432C76.8111 14.8011 76.5582 15.554 76.0526 16.2017C75.5526 16.8494 74.8651 17.3551 73.9901 17.7188C73.1207 18.0767 72.1179 18.2557 70.9815 18.2557C69.2486 18.2557 67.8679 17.8949 66.8395 17.1733C65.8168 16.446 65.2173 15.4574 65.0412 14.2074L68.6122 14.0199C68.7202 14.5483 68.9815 14.9517 69.3963 15.2301C69.8111 15.5028 70.3423 15.6392 70.9901 15.6392C71.6264 15.6392 72.1378 15.517 72.5241 15.2727C72.9162 15.0227 73.1151 14.7017 73.1207 14.3097C73.1151 13.9801 72.9759 13.7102 72.7031 13.5C72.4304 13.2841 72.0099 13.1193 71.4418 13.0057L69.1747 12.554C67.8963 12.2983 66.9446 11.8551 66.3196 11.2244C65.7003 10.5937 65.3906 9.78977 65.3906 8.8125C65.3906 7.97159 65.6179 7.24716 66.0724 6.6392C66.5327 6.03125 67.1776 5.5625 68.0071 5.23295C68.8423 4.90341 69.8196 4.73864 70.9389 4.73864C72.5923 4.73864 73.8935 5.08807 74.8423 5.78693C75.7969 6.4858 76.3537 7.4375 76.5128 8.64205Z" fill="#EEEEEE"/>
<path d="M48.2599 9.27273C48.2599 11.1761 47.8991 12.7955 47.1776 14.1307C46.4616 15.4659 45.4844 16.4858 44.2457 17.1903C43.0128 17.8892 41.6264 18.2386 40.0866 18.2386C38.5355 18.2386 37.1435 17.8864 35.9105 17.1818C34.6776 16.4773 33.7031 15.4574 32.9872 14.1222C32.2713 12.7869 31.9134 11.1705 31.9134 9.27273C31.9134 7.36932 32.2713 5.75 32.9872 4.41477C33.7031 3.07955 34.6776 2.0625 35.9105 1.36364C37.1435 0.659091 38.5355 0.306818 40.0866 0.306818C41.6264 0.306818 43.0128 0.659091 44.2457 1.36364C45.4844 2.0625 46.4616 3.07955 47.1776 4.41477C47.8991 5.75 48.2599 7.36932 48.2599 9.27273ZM44.5185 9.27273C44.5185 8.03977 44.3338 7 43.9645 6.15341C43.6009 5.30682 43.0866 4.66477 42.4219 4.22727C41.7571 3.78977 40.9787 3.57102 40.0866 3.57102C39.1946 3.57102 38.4162 3.78977 37.7514 4.22727C37.0866 4.66477 36.5696 5.30682 36.2003 6.15341C35.8366 7 35.6548 8.03977 35.6548 9.27273C35.6548 10.5057 35.8366 11.5455 36.2003 12.392C36.5696 13.2386 37.0866 13.8807 37.7514 14.3182C38.4162 14.7557 39.1946 14.9744 40.0866 14.9744C40.9787 14.9744 41.7571 14.7557 42.4219 14.3182C43.0866 13.8807 43.6009 13.2386 43.9645 12.392C44.3338 11.5455 44.5185 10.5057 44.5185 9.27273ZM50.9936 18V0.545454H62.755V3.58807H54.6839V7.74716H62.1499V10.7898H54.6839V14.9574H62.7891V18H50.9936Z" fill="#DE6D25"/>
</svg>
